<svg width="168" height="176" viewBox="0 0 168 176" fill="none" xmlns="http://www.w3.org/2000/svg">
<mask id="path-1-inside-1_202_2" fill="white">
<path fill-rule="evenodd" clip-rule="evenodd" d="M168 45.0579L97.8005 88L163.184 138.461C146.963 161.16 120.094 176 89.6927 176C40.1568 176 0 136.601 0 88C0 39.3989 40.1568 0 89.6927 0C123.335 0 152.651 18.1724 168 45.0579Z"/>
</mask>
<path fill-rule="evenodd" clip-rule="evenodd" d="M168 45.0579L97.8005 88L163.184 138.461C146.963 161.16 120.094 176 89.6927 176C40.1568 176 0 136.601 0 88C0 39.3989 40.1568 0 89.6927 0C123.335 0 152.651 18.1724 168 45.0579Z" fill="#FFE600"/>
<path d="M97.8005 88L93.1041 80.3225L81.9572 87.1413L92.3018 95.1249L97.8005 88ZM168 45.0579L172.696 52.7354L180.145 48.1789L175.816 40.5958L168 45.0579ZM163.184 138.461L170.507 143.693L175.55 136.636L168.683 131.336L163.184 138.461ZM102.497 95.6775L172.696 52.7354L163.304 37.3805L93.1041 80.3225L102.497 95.6775ZM168.683 131.336L103.299 80.8751L92.3018 95.1249L157.685 145.586L168.683 131.336ZM155.862 133.228C141.284 153.628 117.11 167 89.6927 167V185C123.079 185 152.642 168.692 170.507 143.693L155.862 133.228ZM89.6927 167C44.9649 167 9 131.47 9 88H-9C-9 141.733 35.3487 185 89.6927 185V167ZM9 88C9 44.5304 44.9649 9 89.6927 9V-9C35.3487 -9 -9 34.2675 -9 88H9ZM89.6927 9C120.033 9 146.401 25.3779 160.184 49.5201L175.816 40.5958C158.901 10.9668 126.637 -9 89.6927 -9V9Z" fill="black" mask="url(#path-1-inside-1_202_2)"/>
<ellipse cx="98.3073" cy="32.8136" rx="10.1348" ry="9.9435" fill="black"/>
</svg>
